<svg width="500" height="500" xmlns="http://www.w3.org/2000/svg" xmlns:xlink="http://www.w3.org/1999/xlink">
 <linearGradient id="sh-grad" gradientUnits="userSpaceOnUse" x1="51.3661" y1="-6.9693" x2="411.6339" y2="353.2984">
    	  <stop  offset="3.656096e-04" style="stop-color:#17B9C8"/>
    	  <stop  offset="1" style="stop-color:#00527B"/>
      </linearGradient>
 <g>
  <title>Layer 1</title>
 
  <path style="fill: rgb(216, 216, 216); stroke: rgb(0, 0, 0);" d="M 505.36 461.23 C 506.334 465.457 504.076 469.763 500.045 471.365 C 493.761 473.861 487.131 468.62 488.111 461.93 C 489.805 450.331 483.315 439.085 472.424 434.748 C 454.316 427.537 435.192 442.633 438.001 461.921 C 439.2 470.161 435.912 478.415 429.375 483.573 C 415.291 494.688 394.455 486.388 391.872 468.633 C 391.255 464.341 389.416 460.317 386.576 457.04 C 375.174 443.888 353.811 448.011 348.122 464.461 C 347.815 465.349 347.47 466.223 347.088 467.081 C 336.702 490.454 304.909 493.818 289.861 473.137 C 274.812 452.455 287.768 418.13 313.23 420.548 C 355.245 424.539 357.557 406.408 347.983 384.548 C 333.793 352.148 387.996 320.462 398.459 286.673 C 409.523 250.942 400.425 173.694 391.765 157.47 C 360.843 99.539 339.38 89.721 302.554 71.215 C 283.698 61.739 289.418 39.192 299.969 20.916 C 310.521 2.64 343.422 -0.401 353.974 17.875 C 356.191 21.716 357.444 26.038 357.624 30.469 C 358.258 46.086 375.561 55.16 388.769 46.802 C 391.975 44.773 394.548 41.887 396.197 38.47 C 406.854 16.392 437.415 14.13 451.207 34.398 C 455.87 41.25 457.677 49.65 456.246 57.814 C 454.793 66.101 462.856 72.853 470.759 69.968 C 478.662 67.083 480.478 56.724 474.028 51.322 C 472.237 49.823 470.013 48.936 467.682 48.793 C 460.296 48.339 456.171 40.06 460.257 33.89 C 463.438 29.087 470.1 28.141 474.492 31.869 C 477.392 34.33 481.368 35.093 484.973 33.88 C 491.935 31.537 498.541 28.246 504.605 24.099 C 514.984 17.001 527.9 14.673 540.104 17.702 C 549.051 19.923 558.129 21.581 567.283 22.667 C 582.207 24.438 597.28 24.553 612.229 23.01 C 623.689 21.827 635.264 23.463 645.948 27.775 C 659.54 33.261 675.079 30.394 685.819 20.419 C 697.733 9.353 716.185 9.414 728.026 20.558 C 739.005 30.891 756.13 30.891 767.109 20.558 C 782.277 6.282 806.118 6.904 820.52 21.953 C 838.197 40.423 867.553 40.905 885.826 23.024 C 890.448 18.5 898.233 20.676 899.84 26.941 C 901.103 31.866 897.736 36.776 892.686 37.371 C 885.675 38.198 882.189 46.303 886.41 51.961 C 890.631 57.619 899.394 56.586 902.183 50.101 C 903.044 48.101 903.165 45.859 902.523 43.777 C 900.895 38.492 905.599 33.426 910.99 34.659 C 911.536 34.784 912.066 34.972 912.568 35.22 C 917.56 37.684 923.348 33.819 922.985 28.264 C 922.905 27.026 922.507 25.83 921.83 24.79 C 917.633 18.339 921.994 9.765 929.678 9.356 C 935.806 9.029 940.778 14.249 940.155 20.354 C 939.009 31.601 950.467 39.871 960.781 35.241 C 964.903 33.39 967.944 29.744 969.025 25.356 C 972.861 9.787 992.113 4.209 1003.678 15.316 C 1006.408 17.937 1008.372 21.253 1009.359 24.906 C 1013.458 40.078 1032.443 45.123 1043.533 33.988 C 1046.041 31.469 1047.849 28.338 1048.776 24.906 C 1052.931 9.517 1072.188 4.397 1083.437 15.69 C 1085.983 18.246 1087.818 21.423 1088.758 24.906 C 1090.53 31.463 1098.735 33.643 1103.528 28.83 C 1104.611 27.741 1105.392 26.389 1105.793 24.906 C 1107.73 17.741 1114.861 13.279 1122.152 14.671 C 1131.462 16.449 1139.677 21.872 1144.969 29.736 C 1149.155 35.954 1158.502 35.309 1161.794 28.575 C 1162.635 26.855 1162.95 24.926 1162.7 23.028 C 1161.397 13.125 1171.302 5.525 1180.53 9.348 C 1189.758 13.17 1191.387 25.549 1183.462 31.629 C 1182.983 31.997 1182.477 32.331 1181.951 32.629 C 1175.135 36.483 1171.428 44.165 1172.652 51.899 C 1178.972 91.842 1183.284 132.077 1185.572 172.452 C 1186.013 180.232 1182.952 187.802 1177.228 193.089 C 1172.519 197.441 1174.287 205.258 1180.411 207.16 C 1182.176 207.708 1184.073 207.654 1185.804 207.005 C 1191.765 204.771 1197.908 209.827 1196.863 216.106 C 1195.817 222.385 1188.366 225.178 1183.451 221.133 C 1183.424 221.11 1183.397 221.088 1183.37 221.065 C 1177.273 215.914 1167.885 219.294 1166.473 227.15 C 1165.21 234.173 1171.252 240.342 1178.299 239.227 C 1186.617 237.911 1193.24 246.094 1190.221 253.955 C 1187.661 260.618 1179.511 263.086 1173.686 258.961 C 1167.886 254.854 1159.815 258.566 1159.158 265.642 C 1158.501 272.718 1165.751 277.852 1172.208 274.883 C 1173.132 274.458 1173.979 273.884 1174.715 273.183 C 1182.296 265.968 1194.844 269.666 1197.302 279.839 C 1199.76 290.011 1190.283 299.03 1180.245 296.072 C 1176.759 295.045 1173.829 292.665 1172.11 289.463 C 1167.759 281.362 1156.269 281.009 1151.429 288.828 C 1146.89 296.159 1151.376 305.737 1159.914 306.944 C 1188.401 310.972 1201.846 344.327 1184.114 366.984 C 1176.439 376.791 1164.384 382.131 1151.964 381.225 C 1139.92 380.347 1131.442 392.836 1136.703 403.705 C 1141.965 414.575 1157.02 415.672 1163.802 405.681 C 1164.726 404.32 1165.431 402.821 1165.889 401.241 C 1168.862 390.994 1181.813 387.808 1189.2 395.506 C 1196.588 403.205 1192.871 416.013 1182.511 418.562 C 1179.559 419.288 1176.45 419.024 1173.663 417.809 C 1162.16 412.796 1149.544 422.116 1150.955 434.584 C 1152.365 447.052 1166.744 453.318 1176.836 445.863 C 1177.375 445.465 1177.888 445.035 1178.373 444.574 C 1183.108 440.08 1190.933 442.397 1192.458 448.745 C 1193.982 455.093 1188.063 460.711 1181.803 458.857 C 1180.346 458.426 1179.031 457.611 1177.997 456.497 C 1174.245 452.456 1167.526 453.992 1165.902 459.261 C 1164.563 463.606 1167.559 468.084 1172.087 468.503 C 1182.148 469.434 1187.427 480.907 1181.59 489.154 C 1175.753 497.402 1163.178 496.237 1158.954 487.059 C 1157.749 484.439 1157.439 481.496 1158.074 478.683 C 1160.599 467.498 1150.07 457.774 1139.121 461.18 C 1130.56 463.842 1126.274 473.41 1129.987 481.571 C 1132.624 487.371 1127.994 493.851 1121.652 493.235 C 1117.014 492.785 1113.662 488.596 1114.239 483.972 C 1115.603 473.033 1104.613 464.72 1094.458 469.008 C 1088.555 471.501 1085.026 477.613 1085.819 483.972 C 1087.091 494.181 1076.834 501.94 1067.357 497.937 C 1061.66 495.53 1058.357 489.53 1059.373 483.43 C 1060.69 475.546 1052.98 469.193 1045.494 471.994 C 1041.736 473.4 1039.124 476.845 1038.786 480.843 C 1037.867 491.676 1025.565 497.451 1016.643 491.239 C 1013.096 488.769 1010.875 484.811 1010.616 480.496 C 1009.946 469.329 997.439 463.074 988.102 469.238 C 983.509 472.27 981.023 477.637 981.68 483.101 C 982.588 490.651 974.983 496.352 967.991 493.364 C 963.591 491.483 961.171 486.72 962.248 482.058 C 963.02 478.716 963.136 475.256 962.591 471.869 C 958.546 446.74 928.815 435.412 909.075 451.48 C 903.262 456.212 899.228 462.778 897.637 470.103 C 894.121 486.286 874.405 492.595 862.148 481.458 C 859.338 478.905 857.254 475.655 856.107 472.036 C 853.57 464.037 843.325 461.784 837.666 467.981 C 836.128 469.666 835.157 471.791 834.89 474.057 C 832.804 491.765 812.33 500.575 798.037 489.914 C 793.613 486.614 790.512 481.842 789.294 476.458 C 785.045 457.724 762.109 450.616 748.01 463.663 C 741.929 469.29 739.037 477.568 740.292 485.757 C 741.363 492.75 734.463 498.28 727.871 495.711 C 721.279 493.143 719.94 484.401 725.461 479.977 C 726.974 478.764 728.833 478.061 730.77 477.969 C 739.297 477.562 744.185 468.077 739.569 460.897 C 734.954 453.716 724.295 454.225 720.384 461.812 C 719.877 462.797 719.52 463.852 719.325 464.943 C 718.292 470.727 715.588 476.082 711.546 480.347 C 690.228 502.843 654.341 502.658 633.256 479.944 C 627.856 474.126 618.296 475.549 614.825 482.688 C 609.919 492.775 595.933 493.769 589.651 484.477 C 588.776 483.183 588.115 481.757 587.693 480.254 C 584.136 467.589 568.202 463.524 559.013 472.937 C 558.09 473.882 557.279 474.932 556.598 476.064 C 552.807 482.363 543.619 482.195 540.06 475.762 C 539.062 473.958 538.674 471.88 538.955 469.838 C 539.69 464.49 543.655 460.154 548.916 458.945 C 556.593 457.18 559.481 447.767 554.114 442 C 548.747 436.234 539.151 438.44 536.841 445.971 C 535.901 449.034 536.45 452.36 538.324 454.958 C 541.084 458.785 538.666 464.166 533.971 464.642 C 529.277 465.119 525.826 460.335 527.761 456.031 C 527.889 455.745 528.039 455.47 528.209 455.208 C 536.06 443.733 528.545 428.063 514.682 427.001 C 500.82 425.939 491.006 440.282 497.018 452.819 C 498.774 456.481 501.713 459.444 505.36 461.23 Z"/>
  
 </g>
</svg>