<?xml version="1.0" encoding="utf-8"?>
<svg viewBox="0 0 500 500" xmlns="http://www.w3.org/2000/svg">
  <path style="stroke: rgb(0, 0, 0); fill: rgb(42, 41, 41);" d="M 225.196 403.844 C 350.221 403.844 428.363 268.501 365.851 160.226 C 332.857 103.08 268.568 71.576 203.19 80.518 C 118.727 92.069 56.23 164.931 57.672 250.168 C 57.898 263.538 51.577 276.176 40.743 284.014 C 29.253 292.327 20.697 304.071 16.308 317.557 C 9.218 339.337 28.364 360.624 50.771 355.874 C 73.178 351.124 82.04 323.899 66.723 306.87 C 65.334 305.325 63.787 303.93 62.107 302.708 C 54.993 297.529 56.154 286.591 64.196 283.019 C 72.238 279.448 81.131 285.922 80.202 294.673 C 80.063 295.982 79.699 297.258 79.126 298.443 C 74.341 308.336 77.772 320.246 87.087 326.077 C 92.807 329.657 92.506 338.085 86.547 341.249 C 84.609 342.277 82.355 342.542 80.232 341.99 C 73.589 340.265 67.569 346.378 69.397 352.994 C 69.936 354.944 71.122 356.653 72.76 357.84 C 82.71 365.05 81.124 380.329 69.904 385.341 C 58.891 390.261 46.61 381.658 47.471 369.627 C 47.881 363.911 41.949 359.894 36.794 362.397 C 33.921 363.791 32.258 366.862 32.659 370.029 C 33.441 376.209 31.585 382.433 27.547 387.177 C 20.39 395.587 25.021 408.592 35.883 410.585 C 44.399 412.147 52.348 405.867 52.799 397.221 C 53.118 391.088 59.957 387.6 65.109 390.943 C 67.808 392.694 69.19 395.895 68.616 399.06 C 65.973 413.61 80.072 425.564 93.994 420.578 C 107.916 415.592 111.219 397.405 99.94 387.841 C 99.638 387.585 99.327 387.337 99.009 387.1 C 90.769 380.936 92.292 368.163 101.75 364.109 C 111.209 360.055 121.509 367.76 120.291 377.978 C 120.028 380.181 119.222 382.283 117.944 384.096 C 111.243 393.606 117.35 406.803 128.936 407.851 C 129.321 407.886 129.707 407.906 130.093 407.911 C 136.192 407.987 141.818 404.631 144.648 399.227 C 147.4 393.975 144.93 387.499 139.379 385.413 C 136.268 384.244 134.263 381.207 134.41 377.887 C 134.6 373.612 139.347 371.146 142.954 373.448 C 145.493 375.068 146.28 378.414 144.729 380.996 C 143.225 383.501 144.997 386.694 147.918 386.744 C 148.324 386.751 148.729 386.693 149.117 386.571 C 153.313 385.255 157.361 388.975 156.402 393.267 C 156.034 394.913 154.958 396.313 153.462 397.091 C 145.304 401.331 144.795 412.813 152.546 417.758 C 158.561 421.596 166.577 419.338 169.705 412.926 C 171.474 409.319 176.483 408.98 178.722 412.315 C 179.854 414.001 179.905 416.19 178.853 417.927 A 11.846 11.846 0 1 0 200.773 425.235 A 24.52574715208327 24.52574715208327 0 0 1 225.196 403.844 Z"/>
  <circle style="stroke-width: 6px; paint-order: stroke; stroke: rgba(22, 21, 22, 0.48); fill: rgb(9, 9, 9);" cx="229.43" cy="241.929" r="147.07"/>
  <circle style="fill: rgb(72, 71, 71); stroke: rgb(163, 163, 163);" cx="55.525" cy="412.506" r="6.794"/>
  <circle style="fill: rgb(46, 44, 44); stroke: rgb(232, 232, 232);" cx="34.646" cy="428.696" r="13.648"/>
  <circle style="stroke: rgb(202, 202, 202); fill: rgb(49, 48, 48);" cx="67.46" cy="433.712" r="14.232"/>
  <circle style="stroke: rgb(91, 91, 91); fill: rgb(34, 33, 33);" cx="64.128" cy="371.364" r="11.071"/>
  <circle style="fill: rgb(26, 26, 26); stroke: rgb(84, 85, 82);" cx="108.179" cy="375.542" r="9.213"/>
  <circle style="stroke: rgb(111, 112, 107); fill: rgb(49, 49, 49);" cx="67.933" cy="295.38" r="7.222"/>
  <circle style="fill: rgb(57, 56, 56); stroke: rgb(117, 117, 115);" cx="139.973" cy="378.808" r="3.245"/>
  <circle style="stroke: rgb(203, 203, 203); fill: rgb(66, 64, 64);" cx="111.195" cy="422.024" r="6.075"/>
  <circle style="fill: rgb(61, 59, 59); stroke: rgb(193, 193, 193);" cx="129.44" cy="441.518" r="20.063"/>
  <circle style="stroke: rgb(175, 175, 175); fill: rgb(77, 76, 76);" cx="153.289" cy="428.029" r="4.858"/>
  <circle style="fill: rgb(68, 66, 66); stroke: rgb(200, 200, 200);" cx="132.336" cy="414.206" r="3.168"/>
  <circle style="fill: rgb(88, 85, 85); stroke: rgb(176, 176, 176);" cx="113.612" cy="408.269" r="3.511"/>
  <circle style="stroke: rgb(192, 192, 192); fill: rgb(57, 55, 55);" cx="92.016" cy="442.239" r="7.537"/>
  <circle style="stroke: rgb(150, 147, 147); fill: rgba(43, 43, 43, 0.99);" cx="36.633" cy="463.828" r="19.61"/>
  <circle style="fill: rgb(43, 42, 42); stroke: rgb(159, 159, 159);" cx="82.723" cy="332.505" r="5.391"/>
  <circle style="fill: rgb(68, 66, 66); stroke: rgb(147, 147, 144);" cx="150.341" cy="391.902" r="2.763"/>
  <circle style="fill: rgb(55, 53, 53); stroke: rgb(197, 198, 194);" cx="173.757" cy="415.995" r="3.329"/>
  <circle style="stroke: rgb(127, 127, 127); fill: rgb(66, 64, 64);" cx="65.201" cy="456.553" r="4.636"/>
</svg>