<?xml version="1.0" encoding="utf-8"?>
<svg width="500" height="500" viewBox="336.958 683.116 270.703 162.127" xmlns="http://www.w3.org/2000/svg">
  <g id="Layer_1">
    <title>Layer 1</title>
    <rect fill="#f5a5c1" x="540.5" y="792" width="49" height="43" id="svg_1" stroke="#000"/>
    <rect fill="#f5a5c1" x="456.50002" y="744" width="132.99997" height="41" id="svg_2" stroke="#000"/>
    <text fill="#000000" x="481.87767" y="769.67521" id="svg_4" stroke-width="0" font-size="24" font-family="serif" text-anchor="start" stroke="#000" transform="matrix(0.865364 0 0 0.835358 79.0963 125.875)" font-weight="normal" font-style="normal" style="white-space: pre;">About Me</text>
    <rect fill="#f5a5c1" x="348.50004" y="793" width="182.99996" height="41" id="svg_6" stroke="#000"/>
    <text fill="#000000" x="392.10769" y="778.67662" id="svg_7" stroke-width="0" font-size="24" font-family="serif" text-anchor="start" stroke="#000" transform="matrix(0.836133 0 0 0.754035 66.6105 232.449)" font-weight="normal" font-style="normal" style="white-space: pre;">Personal Details</text>
    <path fill="#f5a5c1" stroke="#000" d="m483.51919,759.85379c0,0 0.97655,-3.91519 0,-5.24144c-0.9777,-1.32626 -1.36763,-2.20968 -3.51741,-2.84214s-1.36648,-0.50641 -2.92964,-0.44171c-1.56317,0.06358 -2.86638,0.88343 -2.86638,1.32514c0,0 -0.97655,0.06358 -1.36648,0.44283c-0.39108,0.37925 -1.04211,2.1461 -1.04211,2.58893s0.32552,3.41101 0.65103,4.04235l-0.38763,0.12604c-0.32552,3.66198 1.30206,4.10481 1.30206,4.10481c0.58547,3.41101 1.17209,1.95871 1.17209,2.84214s-0.58662,0.56887 -0.58662,0.56887s-0.51991,1.38872 -1.82197,1.89401c-1.30206,0.50418 -8.53013,3.21915 -9.1179,3.78803c-0.58777,0.56999 -0.52106,3.22138 -0.52106,3.22138l30.99534,0c0,0 0.06786,-2.6514 -0.51991,-3.22138c-0.58892,-0.56999 -7.81699,-3.28385 -9.11905,-3.78803c-1.30206,-0.50529 -1.82197,-1.89401 -1.82197,-1.89401s-0.58662,0.31455 -0.58662,-0.56887s0.58662,0.56887 1.17324,-2.84214c0,0 1.62643,-0.44283 1.30206,-4.10481l-0.39108,0l0.00001,0z" id="svg_11"/>
    <rect fill="#f5a5c1" x="347.50003" y="744" width="101.99997" height="41" id="svg_16" stroke="#000"/>
    <text fill="#010505" x="415.01874" y="770" id="svg_17" font-size="24" font-family="serif" text-anchor="start" stroke="#000" transform="matrix(0.784438 0 0 0.824337 68.156 136.905)" font-style="normal" font-weight="normal" style="white-space: pre;">Work</text>
    <line fill="none" stroke="#000" x1="552.5" y1="804" x2="583.5" y2="804" id="svg_19"/>
    <line fill="none" x1="547.5" y1="813" x2="578.5" y2="813" id="svg_22" stroke="#000"/>
    <line fill="none" x1="552.5" y1="823" x2="583.5" y2="823" id="svg_23" stroke="#000"/>
    <rect fill="#f5a5c1" x="488.50003" y="697" width="99.99997" height="41" id="svg_25" stroke="#000"/>
    <text fill="#f5a5c1" x="526.5" y="721.39827" id="svg_26" font-size="24" font-family="serif" text-anchor="start" font-weight="normal" font-style="normal" stroke="#000" transform="matrix(1 0 0 0.819781 0 132.17)" style="white-space: pre;">Skills</text>
    <path fill="#f5a5c1" d="m363.7311,775.6968c0.64189,0.29859 1.51788,0.99573 2.19623,0.74067c0.44496,-0.16509 0.70533,-1.09988 0.98178,-1.59194c2.08097,-3.69886 4.3426,-7.90591 5.98879,-11.50513c0,-0.16058 0.09454,-0.28473 -0.04593,-0.50303c0.92085,-1.35237 1.54594,-2.83823 2.55202,-4.34312c0.31863,-0.4782 0.64279,-1.14181 1.08972,-1.33303l0.82542,-0.31084c1.04932,-0.24345 1.81577,-0.23507 2.54738,0.39984c0.37097,0.32374 0.54164,0.85773 0.90047,1.17921c0.24266,0.21959 1.16726,0.75969 1.51108,0.67618c0.26715,-0.06513 0.48732,-0.30794 0.6746,-0.61557l0.65208,-1.08699c0.1828,-0.30922 0.28681,-0.60686 0.20157,-0.8445c-0.10972,-0.306 -1.11689,-0.71004 -1.45409,-0.77324c-0.49481,-0.09576 -1.08131,0.06837 -1.58524,-0.03482c-0.99036,-0.2054 -1.41764,-0.77937 -1.76431,-1.70739c-2.44338,-1.29594 -5.73288,-2.13851 -9.56298,-1.05152c-1.03896,0.29504 -2.03487,0.51883 -2.71786,1.11827c-0.13689,0.34824 0.13385,0.41758 0.4178,0.41338c-0.22212,0.18251 -0.58095,0.28828 -0.37383,0.71682c2.33757,-0.96865 6.87692,-1.30335 7.18518,0.67941c0.06737,0.44144 -0.37009,1.04926 -0.63904,1.55132c-0.84793,1.58389 -1.88403,2.86886 -2.63547,4.30346c-0.27931,0.01419 -0.34293,0.15187 -0.49197,0.24248c-2.43962,3.21196 -5.10708,7.21973 -7.40141,10.81476c-0.30558,0.47819 -1.02878,1.18502 -0.9389,1.61097c0.13492,0.65168 1.24518,0.95511 1.8869,1.25435l0,0l0.00001,0z" id="svg_27" stroke="#000"/>
    <rect fill="#f5a5c1" x="348.50002" y="697" width="132.99997" height="41" id="svg_29" stroke="#000"/>
    <text fill="#f5a5c1" stroke="#000" x="390.5" y="725" id="svg_30" font-size="24" font-family="serif" text-anchor="start" style="white-space: pre;">Portfolio</text>
    <path fill="#f5a5c1" d="m373.32226,800.07974c-8.5604,0 -15.5,6.26803 -15.5,14c0,7.73214 6.9396,14 15.5,14c8.56059,0 15.5,-6.26786 15.5,-14c0,-7.73197 -6.93942,-14 -15.5,-14zm-1.32564,6.29394l2.5809,0l0,2.47958l-2.5809,0l0,-2.47958zm4.27125,15.04815l-2.83882,0c-1.1029,0 -1.57319,-0.42385 -1.57319,-1.44115l0,-6.6127c0,-0.31785 -0.18755,-0.4663 -0.51606,-0.4663l-0.93853,0l0,-2.28961l2.83902,0c1.10371,0 1.57197,0.44498 1.57197,1.44097l0,6.63401c0,0.29765 0.18755,0.46631 0.51606,0.46631l0.93854,0l0,2.26848l0.00101,0l0,0l0,-0.00001z" id="svg_31" stroke="#000"/>
    <path fill="#000000" stroke="#000" stroke-width="0" d="m500.59124,723.27837l-4.57624,4.17765l23.00001,0l0,-21.00002l-18.42377,16.82237zm10.78569,-9.23146c0.16618,-0.14929 0.42885,-0.14929 0.59325,0l1.0364,0.9455c0.16439,0.14929 0.16618,0.39158 0.00179,0.54087c-0.0822,0.07424 -0.1903,0.11176 -0.29662,0.11176c-0.10811,0 -0.21443,-0.03753 -0.29484,-0.11176l-1.03997,-0.9455c-0.1635,-0.14929 -0.1635,-0.39076 0,-0.54087l-0.00001,0zm-1.43041,1.30852c0.16439,-0.14929 0.42885,-0.14929 0.59146,0l1.92627,1.75721c0.16439,0.14929 0.16439,0.39158 0.00179,0.53924c-0.0822,0.07505 -0.1903,0.11339 -0.29841,0.11339s-0.21443,-0.03753 -0.29484,-0.11176l-1.92627,-1.75721c-0.16439,-0.14929 -0.16439,-0.39158 0,-0.54087zm-1.43309,1.30608c0.16439,-0.14929 0.42885,-0.14929 0.59325,0l1.0364,0.94713c0.16439,0.14929 0.16261,0.39158 -0.00179,0.54087c-0.0822,0.07505 -0.18852,0.11258 -0.29484,0.11258c-0.10811,0 -0.21443,-0.03753 -0.29662,-0.11258l-1.0364,-0.94631c-0.1635,-0.14929 -0.1635,-0.39239 0,-0.54168l0,-0.00001zm-1.43041,1.30771c0.16439,-0.14929 0.42885,-0.14766 0.59325,0.00163l1.03461,0.9455c0.1635,0.15011 0.1635,0.39158 0,0.54087c-0.0822,0.07505 -0.18941,0.11258 -0.29662,0.11258c-0.10632,0 -0.21443,-0.03753 -0.29662,-0.11258l-1.03461,-0.94713c-0.1635,-0.15011 -0.1635,-0.39158 0,-0.54087l-0.00001,0zm-1.4322,1.30852c0.1635,-0.15011 0.42796,-0.15011 0.59236,0l1.92448,1.75639c0.16439,0.15011 0.16439,0.39239 0,0.5425c-0.0822,0.07505 -0.18852,0.11258 -0.29484,0.11258c-0.10811,0 -0.21621,-0.03753 -0.29841,-0.11258l-1.92359,-1.75802c-0.1635,-0.15011 -0.1635,-0.39158 0,-0.54087zm-1.77885,6.21875c-0.0813,0.07587 -0.18941,0.11339 -0.29662,0.11339c-0.10632,0 -0.21264,-0.03671 -0.29484,-0.11176l-1.92448,-1.75639c-0.16439,-0.14929 -0.16439,-0.39076 0,-0.54087s0.42796,-0.15011 0.59146,0l1.92448,1.75639c0.1635,0.14847 0.1635,0.38995 0,0.53924zm0.545,-2.1186c-0.08309,0.07587 -0.1912,0.11339 -0.29752,0.11339c-0.10721,0 -0.21443,-0.03671 -0.29484,-0.11176l-1.03819,-0.94713c-0.16439,-0.14929 -0.16439,-0.39076 0,-0.53842c0.16439,-0.15092 0.42885,-0.15255 0.59325,-0.00245l1.03729,0.94795c0.1635,0.14684 0.1635,0.38913 0,0.53842l0.00001,0zm1.43041,-1.30689c-0.0822,0.07505 -0.18852,0.11258 -0.29662,0.11258c-0.10632,0 -0.21353,-0.03753 -0.29573,-0.11258l-1.03551,-0.94631c-0.16439,-0.15011 -0.16439,-0.39158 0,-0.54168s0.42885,-0.14847 0.59236,0.00163l1.03551,0.94713c0.1635,0.14929 0.1635,0.39158 0,0.53924l-0.00001,-0.00001zm8.69949,1.30608l-7.74619,0l7.74619,-7.07288l0,7.07288zm-0.10721,-9.1507c-0.08041,0.07505 -0.18852,0.11258 -0.29484,0.11258c-0.10811,0 -0.21621,-0.03753 -0.29841,-0.11258l-1.0364,-0.9455c-0.16439,-0.14929 -0.16439,-0.39076 0,-0.54087c0.16261,-0.14929 0.42796,-0.14929 0.59146,0l1.0364,0.9455c0.16439,0.15011 0.16529,0.39158 0.00179,0.54087zm2.31939,-0.496c-0.0822,0.07505 -0.1903,0.11176 -0.29662,0.11176s-0.21443,-0.03671 -0.29484,-0.11176l-1.92448,-1.75721c-0.16439,-0.14929 -0.16439,-0.39239 0,-0.54168s0.43064,-0.14766 0.59325,0.00163l1.92448,1.75721c0.1635,0.14929 0.16171,0.39158 -0.00179,0.54005z" id="svg_33"/>
    <path fill="#f5a5c1" stroke="#000" d="m354.7249,704.48947l0,26.99995l33.00002,0l0,-26.99995l-33.00002,0zm27.80558,24.68245l-22.61113,0l0,-22.36496l22.61113,0l0,22.36496zm-17.11112,-13.60031c1.74289,0 3.157,-1.39872 3.157,-3.12263c0,-1.72512 -1.41411,-3.12263 -3.157,-3.12263c-1.74411,0 -3.157,1.39872 -3.157,3.12263c0,1.72392 1.41289,3.12263 3.157,3.12263zm15.89012,2.72006l-6.00967,-5.94424l-8.45412,8.36208l-2.343,-2.31749l-3.36356,3.32694l0,6.24406l20.17035,0l0,-9.67133l0,-0.00002z" id="svg_34"/>
  </g>
</svg>