<?xml version="1.0" encoding="utf-8"?>
<svg viewBox="272.403 146.798 72.555 49.782" xmlns="http://www.w3.org/2000/svg">
  <path style="fill: rgb(216, 216, 216); stroke: rgb(0, 0, 0);" d="M 319.327 150.01 C 325.867 150.01 330.66 156.165 329.057 162.506 C 327.803 167.469 331.064 172.442 336.116 173.269 C 340.187 173.936 342.009 178.76 339.396 181.952 C 336.783 185.144 331.694 184.31 330.236 180.451 C 329.951 179.695 329.84 178.883 329.912 178.078 C 330.277 174.016 326.108 171.082 322.408 172.796 C 318.791 174.472 318.251 179.391 321.417 181.812 C 323.575 183.463 323.136 186.83 320.628 187.873 C 318.201 188.882 315.562 186.98 315.753 184.359 C 316.006 180.891 312.409 178.45 309.28 179.965 C 306.15 181.481 305.834 185.816 308.711 187.768 C 308.72 187.775 308.73 187.781 308.739 187.787 A 3.644 3.644 0 1 1 303.556 192.635 A 13.286 13.286 0 0 0 289.929 186.146 A 7.827 7.827 0 0 1 280.857 178.479 A 16.433 16.433 0 0 1 283.274 169.776 A 7.645 7.645 0 0 0 282.606 160.868 A 4.286 4.286 0 1 1 289.635 156.032 A 4.92 4.92 0 0 0 298.243 156.032 A 6.395 6.395 0 0 1 308.828 155.142 A 3.664 3.664 0 0 0 315.1 154.192 A 6.671 6.671 0 0 1 319.327 150.01 Z"/>
  <g class="layer" transform="matrix(1, 0, 0, 1, 291.566443, 156.382056)">
    <title>Layer 1</title>
    <path d="m2,19l20,0l0,-2.33333l-20,0l0,2.33333zm0,-5.83333l20,0l0,-2.33333l-20,0l0,2.33333zm0,-8.16667l0,2.33333l20,0l0,-2.33333l-20,0z" id="svg_1" style="" fill="black"/>
  </g>
  <circle style="fill: rgb(216, 216, 216);" cx="309.914" cy="149.668" r="2.051"/>
  <circle style="fill: rgb(216, 216, 216);" cx="277.996" cy="165.558" r="3.217"/>
  <circle style="fill: rgb(216, 216, 216);" cx="279.174" cy="152.527" r="3.626"/>
  <circle style="fill: rgb(216, 216, 216);" cx="292.686" cy="152.452" r="3.124"/>
  <circle style="fill: rgb(216, 216, 216);" cx="324.441" cy="177.104" r="2.897"/>
  <circle style="fill: rgb(216, 216, 216);" cx="311.042" cy="184.68" r="2.174"/>
  <circle style="fill: rgb(216, 216, 216);" cx="331.363" cy="189.598" r="4.544"/>
  <circle style="fill: rgb(216, 216, 216);" cx="322.025" cy="190.943" r="1.546"/>
  <circle style="fill: rgb(216, 216, 216);" cx="340.004" cy="188.117" r="2.834"/>
  <circle style="fill: rgb(216, 216, 216);" cx="337.348" cy="166.015" r="5.917"/>
  <circle style="fill: rgb(216, 216, 216);" cx="277.592" cy="186.514" r="4.277"/>
  <circle style="fill: rgb(216, 216, 216);" cx="334.088" cy="152.2" r="2.971"/>
  <circle style="fill: rgb(216, 216, 216);" cx="340.15" cy="154.794" r="2.018"/>
  <circle style="fill: rgb(216, 216, 216);" cx="291.454" cy="193.009" r="2.228"/>
  <circle style="fill: rgb(216, 216, 216);" cx="284.675" cy="191.314" r="2.276"/>
</svg>